# xmcd CD database file
#
# Track frame offsets:
#	150
#	11402
#	35052
#	57025
#	95742
#	113197
#	126837
#	149487
#	170305
#	192685
#	215330
#	231515
#	256450
#	280705
#
# Disc length: 4063 seconds
#
# Revision: 4
# Processed by: cddbd v1.5PL3 Copyright (c) Steve Scherf et al.
# Submitted via: CDex 1.50beta10
#
DISCID=d30fdd0e
DTITLE=中島みゆき - 歌暦
DYEAR=1900
DGENRE=Folk
TTITLE0=片想’86
TTITLE1=狼になりたい
TTITLE2=悪女
TTITLE3=HALF
TTITLE4=鳥になって
TTITLE5=クリスマスソングを唄うように
TTITLE6=阿呆鳥
TTITLE7=最悪
TTITLE8=F.O.
TTITLE9=この世に二人だけ
TTITLE10=縁
TTITLE11=見返り美人
TTITLE12=やまねこ
TTITLE13=波の上
EXTD=
EXTT0=
EXTT1=
EXTT2=
EXTT3=
EXTT4=
EXTT5=
EXTT6=
EXTT7=
EXTT8=
EXTT9=
EXTT10=
EXTT11=
EXTT12=
EXTT13=
PLAYORDER=
